<svg id="Group_1" data-name="Group 1" xmlns="http://www.w3.org/2000/svg" width="160.136" height="39.06" viewBox="0 0 160.136 39.06">
  <g id="Group_1-2" data-name="Group 1">
    <path id="Path_6" data-name="Path 6" d="M146.915,308.358v.461a3.969,3.969,0,0,0-1.184.172.862.862,0,0,0-.54.553,4.166,4.166,0,0,0-.138,1.253v11.686a3.981,3.981,0,0,0,.1,1.057.657.657,0,0,0,.415.463,2.907,2.907,0,0,0,.931.113h1.127a3.127,3.127,0,0,0,1.92-.644,4.988,4.988,0,0,0,1.448-1.8,8.922,8.922,0,0,0,.819-2.682h.528c-.046.525-.068,1.2-.068,2.027,0,.351.007.866.022,1.54s.061,1.374.138,2.094q-1.173-.048-2.645-.057c-.982-.007-1.855-.011-2.623-.011H145.1q-1.29,0-2.737.011t-2.691.057v-.461a3.98,3.98,0,0,0,1.1-.183.806.806,0,0,0,.495-.552,4.561,4.561,0,0,0,.127-1.243V310.8a4.534,4.534,0,0,0-.127-1.253.831.831,0,0,0-.506-.553,3.452,3.452,0,0,0-1.092-.172v-.461c.382.018.9.03,1.553.048s1.345.022,2.081.022q1.014,0,1.989-.022c.653-.018,1.192-.03,1.623-.048" transform="translate(-139.546 -285.907)" fill="#0f4431"/>
    <path id="Path_7" data-name="Path 7" d="M194.907,323.12q-.92,0-1.542,1.369a16.243,16.243,0,0,0,0,8.891q.622,1.359,1.542,1.357.944,0,1.553-1.357a16.535,16.535,0,0,0,0-8.891q-.61-1.369-1.553-1.369m0-.461a6.579,6.579,0,0,1,2.945.623,4.385,4.385,0,0,1,1.978,2,8.01,8.01,0,0,1,.712,3.659,7.921,7.921,0,0,1-.712,3.645,4.39,4.39,0,0,1-1.978,1.99,7.222,7.222,0,0,1-5.855,0,4.423,4.423,0,0,1-2-1.99,7.788,7.788,0,0,1-.725-3.645A7.875,7.875,0,0,1,190,325.28a4.417,4.417,0,0,1,2-2,6.531,6.531,0,0,1,2.909-.623" transform="translate(-175.024 -296.136)" fill="#0f4431"/>
    <path id="Path_8" data-name="Path 8" d="M237.516,308.358v14.148a1.925,1.925,0,0,0,.334,1.313,1.552,1.552,0,0,0,1.138.343v.483c-.293-.015-.728-.037-1.312-.057s-1.173-.035-1.771-.035-1.2.011-1.806.035-1.062.043-1.369.057v-.483a1.552,1.552,0,0,0,1.138-.343,1.925,1.925,0,0,0,.334-1.313V311.118a2.952,2.952,0,0,0-.31-1.531,1.27,1.27,0,0,0-1.162-.495v-.482c.491.044.967.068,1.426.068.63,0,1.227-.025,1.795-.081a12.37,12.37,0,0,0,1.564-.24" transform="translate(-206.109 -285.907)" fill="#0f4431"/>
    <path id="Path_9" data-name="Path 9" d="M263.123,308.358v14.148a1.923,1.923,0,0,0,.334,1.313,1.551,1.551,0,0,0,1.138.343v.483c-.292-.015-.728-.037-1.312-.057s-1.173-.035-1.771-.035-1.2.011-1.806.035-1.062.043-1.369.057v-.483a1.551,1.551,0,0,0,1.138-.343,1.925,1.925,0,0,0,.334-1.313V311.118a2.954,2.954,0,0,0-.31-1.531,1.27,1.27,0,0,0-1.162-.495v-.482c.491.044.966.068,1.426.068.63,0,1.227-.025,1.795-.081a12.369,12.369,0,0,0,1.564-.24" transform="translate(-224.424 -285.907)" fill="#0f4431"/>
    <path id="Path_10" data-name="Path 10" d="M288.878,333.561a1.671,1.671,0,0,0,.815-.207,2.328,2.328,0,0,0,.749-.734V327.9a2.314,2.314,0,0,1-.773.771q-.494.31-1.011.668a3.038,3.038,0,0,0-.863.908,2.747,2.747,0,0,0-.343,1.472,1.975,1.975,0,0,0,.413,1.413,1.348,1.348,0,0,0,1.013.426m-1.773,1.474a2.785,2.785,0,0,1-2.23-.806,2.9,2.9,0,0,1-.692-1.955,2.686,2.686,0,0,1,.45-1.61,3.587,3.587,0,0,1,1.16-1.024,8.7,8.7,0,0,1,1.507-.666c.529-.177,1.036-.355,1.518-.529a4.479,4.479,0,0,0,1.173-.609,1.064,1.064,0,0,0,.45-.875v-1.795a2.735,2.735,0,0,0-.2-1.07,1.5,1.5,0,0,0-.6-.725,1.941,1.941,0,0,0-1.046-.253,3.53,3.53,0,0,0-.92.126,1.69,1.69,0,0,0-.758.426,2.117,2.117,0,0,1,1,.7,1.743,1.743,0,0,1,.356,1.07,1.549,1.549,0,0,1-.539,1.243,1.912,1.912,0,0,1-1.278.459,1.526,1.526,0,0,1-1.253-.517,1.91,1.91,0,0,1-.426-1.254,1.768,1.768,0,0,1,.332-1.1,3.694,3.694,0,0,1,.933-.83,5.633,5.633,0,0,1,1.553-.576,8.9,8.9,0,0,1,1.965-.207,7.751,7.751,0,0,1,1.911.219,3.056,3.056,0,0,1,1.426.793,2.54,2.54,0,0,1,.69,1.3,9.707,9.707,0,0,1,.161,1.944v6.257a1.881,1.881,0,0,0,.116.782.406.406,0,0,0,.391.231.883.883,0,0,0,.437-.116,2.341,2.341,0,0,0,.391-.277l.229.393a3.414,3.414,0,0,1-1.116.632,4.331,4.331,0,0,1-1.413.218,2.284,2.284,0,0,1-1.83-.563,2.141,2.141,0,0,1-.47-1.3,3.84,3.84,0,0,1-1.416,1.4,4.028,4.028,0,0,1-1.967.461" transform="translate(-242.91 -296.135)" fill="#0f4431"/>
    <path id="Path_11" data-name="Path 11" d="M334.189,322.659a4.3,4.3,0,0,1,1.575.243,2.344,2.344,0,0,1,.955.655,2.748,2.748,0,0,1,.539,1.127,7.935,7.935,0,0,1,.173,1.863v6.188a1.915,1.915,0,0,0,.334,1.311,1.553,1.553,0,0,0,1.138.345v.482c-.291-.014-.728-.035-1.312-.057s-1.157-.035-1.725-.035q-.875,0-1.714.035c-.561.023-.986.043-1.277.057v-.482a1.178,1.178,0,0,0,.965-.345,2.212,2.212,0,0,0,.278-1.311v-7.155a3.9,3.9,0,0,0-.116-1,1.228,1.228,0,0,0-.415-.664,1.4,1.4,0,0,0-.9-.243,2.065,2.065,0,0,0-1.621.758,2.819,2.819,0,0,0-.657,1.911v6.4a2.151,2.151,0,0,0,.288,1.311,1.188,1.188,0,0,0,.955.345v.482c-.276-.014-.679-.035-1.208-.057s-1.076-.035-1.644-.035q-.875,0-1.795.035c-.614.023-1.075.043-1.38.057v-.482a1.555,1.555,0,0,0,1.138-.345,1.923,1.923,0,0,0,.334-1.311V325.49a2.936,2.936,0,0,0-.311-1.531,1.259,1.259,0,0,0-1.161-.494v-.483q.735.069,1.426.07.966,0,1.806-.081a12.405,12.405,0,0,0,1.551-.243V324.8a3.453,3.453,0,0,1,1.564-1.656,4.979,4.979,0,0,1,2.21-.483" transform="translate(-272.556 -296.136)" fill="#0f4431"/>
    <path id="Path_12" data-name="Path 12" d="M387.355,308.356v13.757a2.866,2.866,0,0,0,.321,1.531,1.268,1.268,0,0,0,1.151.494v.482c-.475-.045-.951-.068-1.426-.068q-.966,0-1.806.068a9.411,9.411,0,0,0-1.553.254V311.117a2.948,2.948,0,0,0-.31-1.531,1.265,1.265,0,0,0-1.162-.494v-.483c.491.044.966.068,1.426.068q.942,0,1.795-.08a12.092,12.092,0,0,0,1.564-.241m-5.866,4.073a4.43,4.43,0,0,1,1.784.335,2.494,2.494,0,0,1,1.207,1.114l-.275.253a1.8,1.8,0,0,0-.795-.792,2.346,2.346,0,0,0-1.046-.243,2.087,2.087,0,0,0-1.865,1.369,9.65,9.65,0,0,0-.666,4.222,14.522,14.522,0,0,0,.265,3.117,3.449,3.449,0,0,0,.758,1.666,1.547,1.547,0,0,0,1.138.506,1.939,1.939,0,0,0,1.4-.62,2.419,2.419,0,0,0,.666-1.679l.116.8a3.556,3.556,0,0,1-1.116,1.85,3.053,3.053,0,0,1-2.012.633,4.488,4.488,0,0,1-2.427-.666,4.357,4.357,0,0,1-1.668-2.059,9.2,9.2,0,0,1-.6-3.6,7.858,7.858,0,0,1,.669-3.461,4.708,4.708,0,0,1,1.828-2.059,5.05,5.05,0,0,1,2.634-.691" transform="translate(-308.838 -285.905)" fill="#0f4431"/>
    <path id="Path_13" data-name="Path 13" d="M144.943,234.576a1.786,1.786,0,0,0-1.38.39,2.681,2.681,0,0,0-.323,1.588v11.409a2.436,2.436,0,0,0,.334,1.553,1.934,1.934,0,0,0,1.391.356,4.417,4.417,0,0,0,3.278-1.046,4.08,4.08,0,0,0,1.024-2.977,3.727,3.727,0,0,0-.955-2.739,4.285,4.285,0,0,0-3.139-.965H142.8v-.393h1.978a3.607,3.607,0,0,0,2.094-.515,2.627,2.627,0,0,0,1.013-1.381,6.038,6.038,0,0,0,.276-1.852,3.82,3.82,0,0,0-.747-2.564,3.121,3.121,0,0,0-2.473-.863m-5.705-.461c.323.016.744.03,1.264.048s1.037.021,1.542.021q1.082,0,2.071-.021c.658-.017,1.127-.024,1.4-.024a5.574,5.574,0,0,1,3.634,1.013,3.226,3.226,0,0,1,1.219,2.6,3.928,3.928,0,0,1-.334,1.577,3.773,3.773,0,0,1-1.1,1.4,5.915,5.915,0,0,1-2.058,1.022v.048a7.121,7.121,0,0,1,2.841.863,3.68,3.68,0,0,1,1.439,1.483,4.205,4.205,0,0,1-1.048,5,6.043,6.043,0,0,1-4.06,1.253q-.506,0-1.518-.036c-.674-.021-1.488-.033-2.439-.033-.537,0-1.065,0-1.588.012s-.941.026-1.264.057v-.461a4.551,4.551,0,0,0,1.184-.184.833.833,0,0,0,.542-.55,4.259,4.259,0,0,0,.137-1.245V236.554a4.217,4.217,0,0,0-.137-1.253.868.868,0,0,0-.542-.553,3.924,3.924,0,0,0-1.184-.172Z" transform="translate(-139.238 -232.805)" fill="#0f4431"/>
    <path id="Path_14" data-name="Path 14" d="M198.209,248.823v9.614a2.5,2.5,0,0,0,.38,1.529,1.628,1.628,0,0,0,1.368.494v.485c-.475-.048-.95-.068-1.426-.068a10.981,10.981,0,0,0-1.277.068,4.792,4.792,0,0,0-1.116.251v-2.714a3.948,3.948,0,0,1-3.772,2.76,3.924,3.924,0,0,1-1.4-.229,2.641,2.641,0,0,1-.989-.644,2.443,2.443,0,0,1-.6-1.2,8.666,8.666,0,0,1-.161-1.818v-5.774a2.578,2.578,0,0,0-.369-1.531,1.635,1.635,0,0,0-1.38-.494v-.482c.49.044.966.068,1.426.068a9.694,9.694,0,0,0,1.277-.081,6.431,6.431,0,0,0,1.116-.24v9.041a8.791,8.791,0,0,0,.091,1.311,1.693,1.693,0,0,0,.461.965,1.644,1.644,0,0,0,1.2.369,2.652,2.652,0,0,0,2.23-1.208,4.913,4.913,0,0,0,.874-2.957v-4.761a2.579,2.579,0,0,0-.367-1.531,1.636,1.636,0,0,0-1.38-.494v-.482c.49.044.965.068,1.426.068a9.694,9.694,0,0,0,1.277-.081,6.44,6.44,0,0,0,1.114-.24" transform="translate(-173.734 -243.324)" fill="#0f4431"/>
    <path id="Path_15" data-name="Path 15" d="M274.18,229.513a1.5,1.5,0,1,1-1.035.439,1.415,1.415,0,0,1,1.035-.439m1.2,5.5v9.959a1.683,1.683,0,0,0,.4,1.313,2.08,2.08,0,0,0,1.345.345v.482c-.261-.015-.655-.035-1.186-.057s-1.06-.035-1.6-.035q-.782,0-1.586.035c-.537.022-.937.043-1.2.057v-.482a2.091,2.091,0,0,0,1.346-.345,1.7,1.7,0,0,0,.4-1.313v-7.2a2.579,2.579,0,0,0-.367-1.531,1.637,1.637,0,0,0-1.381-.494v-.482c.491.044.966.068,1.426.068a9.715,9.715,0,0,0,1.278-.081,6.443,6.443,0,0,0,1.114-.24" transform="translate(-233.879 -229.513)" fill="#0f4431"/>
    <path id="Path_16" data-name="Path 16" d="M302.959,248.582a4.048,4.048,0,0,1,1.461.229,2.634,2.634,0,0,1,.976.644,2.606,2.606,0,0,1,.621,1.149,7.549,7.549,0,0,1,.185,1.865v6.142a1.685,1.685,0,0,0,.4,1.312,2.079,2.079,0,0,0,1.347.345v.482c-.261-.014-.66-.035-1.2-.056s-1.057-.037-1.564-.037-1,.013-1.483.037-.849.041-1.093.056v-.482a1.626,1.626,0,0,0,1.173-.345,1.867,1.867,0,0,0,.346-1.312v-6.65a6.962,6.962,0,0,0-.116-1.31,1.7,1.7,0,0,0-.518-.966,1.771,1.771,0,0,0-1.229-.369,2.767,2.767,0,0,0-2.337,1.208,4.921,4.921,0,0,0-.884,2.98v5.106a1.867,1.867,0,0,0,.345,1.312,1.626,1.626,0,0,0,1.173.345v.482c-.247-.014-.611-.035-1.094-.056s-.976-.037-1.483-.037-1.029.013-1.564.037-.935.041-1.2.056v-.482a2.079,2.079,0,0,0,1.347-.345,1.685,1.685,0,0,0,.4-1.312v-7.2a2.585,2.585,0,0,0-.367-1.531,1.638,1.638,0,0,0-1.382-.494V248.9c.491.045.966.068,1.426.068a9.457,9.457,0,0,0,1.278-.081,6.36,6.36,0,0,0,1.116-.24v2.715a4.03,4.03,0,0,1,1.666-2.175,4.467,4.467,0,0,1,2.245-.609" transform="translate(-250.81 -243.152)" fill="#0f4431"/>
    <path id="Path_17" data-name="Path 17" d="M350.028,248.582a4.091,4.091,0,0,1,3.162,1.229,5.5,5.5,0,0,1,1.14,3.831h-8.12l-.024-.437h5.936a7.61,7.61,0,0,0-.185-2.082,3.619,3.619,0,0,0-.725-1.531,1.609,1.609,0,0,0-1.276-.574,2.345,2.345,0,0,0-1.874,1.059,6.254,6.254,0,0,0-.979,3.359l.07.091c-.032.23-.054.483-.07.761s-.022.552-.022.827a6.516,6.516,0,0,0,.507,2.691,4.11,4.11,0,0,0,1.321,1.714,2.853,2.853,0,0,0,1.691.587,3.75,3.75,0,0,0,1.909-.505,3.845,3.845,0,0,0,1.472-1.795l.459.185a4.72,4.72,0,0,1-.827,1.472,4.46,4.46,0,0,1-1.45,1.162,4.358,4.358,0,0,1-2.024.447,5.139,5.139,0,0,1-2.841-.758,4.893,4.893,0,0,1-1.817-2.1,7.187,7.187,0,0,1-.634-3.095,8.594,8.594,0,0,1,.644-3.485,5.145,5.145,0,0,1,1.817-2.256,4.781,4.781,0,0,1,2.739-.792" transform="translate(-286.286 -243.152)" fill="#0f4431"/>
    <path id="Path_18" data-name="Path 18" d="M426.325,249.015a2.025,2.025,0,0,0-1.345.45,1.615,1.615,0,0,0-.542,1.323,1.786,1.786,0,0,0,.415,1.184,4.636,4.636,0,0,0,1.081.92q.668.427,1.448.932a15.344,15.344,0,0,1,2.234,1.726,3.029,3.029,0,0,1,.919,2.3,2.811,2.811,0,0,1-.552,1.771,3.457,3.457,0,0,1-1.437,1.081,5.035,5.035,0,0,1-1.944.367,5.537,5.537,0,0,1-.955-.079,4.8,4.8,0,0,1-.863-.242,4.237,4.237,0,0,1-.471-.277c-.161-.106-.318-.223-.472-.345a.272.272,0,0,0-.413.013,1.5,1.5,0,0,0-.277.769h-.529c.032-.491.054-1.089.07-1.793s.022-1.64.022-2.807h.529a13.2,13.2,0,0,0,.461,2.254,3.11,3.11,0,0,0,.943,1.509,2.723,2.723,0,0,0,1.794.539,2.347,2.347,0,0,0,1.367-.483,1.946,1.946,0,0,0,.679-1.7,2.1,2.1,0,0,0-.736-1.656,15.107,15.107,0,0,0-1.863-1.357c-.552-.355-1.07-.706-1.553-1.059a4.8,4.8,0,0,1-1.173-1.2,3.189,3.189,0,0,1,.024-3.3,2.753,2.753,0,0,1,1.253-.966,4.522,4.522,0,0,1,1.68-.31,3.731,3.731,0,0,1,1.564.3" transform="translate(-341.927 -243.15)" fill="#0f4431"/>
    <path id="Path_19" data-name="Path 19" d="M457.651,313.281q-.093,1.311-.081,2c.008.461.011.882.011,1.267s.008.8.024,1.264.053,1.127.114,2h-.529a6.428,6.428,0,0,0-.437-1.5,2.71,2.71,0,0,0-.873-1.117,2.463,2.463,0,0,0-1.5-.426v-.458a2.09,2.09,0,0,0,1.472-.507,3.343,3.343,0,0,0,.839-1.206,8.1,8.1,0,0,0,.426-1.324Zm-4.763,3.5v-.458h4.187v.458m3.428-8.419q-.093,1.037-.126,2t-.035,1.5c0,.354.008.679.022.979s.032.556.046.769h-.529a9.809,9.809,0,0,0-.827-2.818,3.4,3.4,0,0,0-1.3-1.459,3.638,3.638,0,0,0-1.83-.437h-.758a3.414,3.414,0,0,0-1.013.113.7.7,0,0,0-.46.461,3.566,3.566,0,0,0-.116,1.059v11.547a3.633,3.633,0,0,0,.184,1.334.984.984,0,0,0,.714.575,7.187,7.187,0,0,0,1.564.161v.507c-.477-.015-1.089-.032-1.841-.046s-1.542-.022-2.37-.022c-.66,0-1.3.006-1.931.022s-1.2.032-1.7.046v-.461a4,4,0,0,0,1.1-.183.806.806,0,0,0,.494-.552,4.56,4.56,0,0,0,.127-1.243V310.8a4.533,4.533,0,0,0-.127-1.253.833.833,0,0,0-.507-.553,3.444,3.444,0,0,0-1.092-.172v-.461c.828.018,1.726.03,2.693.048s1.877.022,2.736.022H455.7c.7,0,1.507,0,2.4-.01s1.7-.03,2.405-.06" transform="translate(-360.22 -285.907)" fill="#0f4431"/>
    <path id="Path_20" data-name="Path 20" d="M498.935,333.561a1.67,1.67,0,0,0,.815-.207,2.331,2.331,0,0,0,.749-.734V327.9a2.312,2.312,0,0,1-.773.771q-.493.31-1.011.668a3.035,3.035,0,0,0-.863.908,2.747,2.747,0,0,0-.343,1.472,1.976,1.976,0,0,0,.413,1.413,1.346,1.346,0,0,0,1.013.426m-1.772,1.474a2.786,2.786,0,0,1-2.23-.806,2.9,2.9,0,0,1-.691-1.955,2.675,2.675,0,0,1,.45-1.61,3.583,3.583,0,0,1,1.16-1.024,8.7,8.7,0,0,1,1.507-.666c.529-.177,1.035-.355,1.518-.529a4.483,4.483,0,0,0,1.173-.609,1.064,1.064,0,0,0,.45-.875v-1.795a2.761,2.761,0,0,0-.2-1.07,1.5,1.5,0,0,0-.6-.725,1.942,1.942,0,0,0-1.048-.253,3.525,3.525,0,0,0-.919.126,1.689,1.689,0,0,0-.758.426,2.116,2.116,0,0,1,1,.7,1.743,1.743,0,0,1,.356,1.07,1.546,1.546,0,0,1-.54,1.243,1.907,1.907,0,0,1-1.277.459,1.526,1.526,0,0,1-1.253-.517,1.909,1.909,0,0,1-.426-1.254,1.768,1.768,0,0,1,.332-1.1,3.7,3.7,0,0,1,.933-.83,5.657,5.657,0,0,1,1.553-.576,8.909,8.909,0,0,1,1.965-.207,7.755,7.755,0,0,1,1.911.219,3.047,3.047,0,0,1,1.426.793,2.536,2.536,0,0,1,.69,1.3,9.687,9.687,0,0,1,.161,1.944v6.257a1.875,1.875,0,0,0,.116.782.406.406,0,0,0,.391.231.881.881,0,0,0,.437-.116,2.337,2.337,0,0,0,.391-.277l.229.393a3.412,3.412,0,0,1-1.116.632,4.331,4.331,0,0,1-1.415.218,2.282,2.282,0,0,1-1.828-.563,2.141,2.141,0,0,1-.471-1.3,3.841,3.841,0,0,1-1.416,1.4,4.024,4.024,0,0,1-1.966.461" transform="translate(-393.154 -296.135)" fill="#0f4431"/>
    <path id="Path_21" data-name="Path 21" d="M540.147,308.358v14.148a1.925,1.925,0,0,0,.334,1.313,1.552,1.552,0,0,0,1.138.343v.483c-.293-.015-.728-.037-1.312-.057s-1.173-.035-1.771-.035-1.2.011-1.806.035-1.062.043-1.369.057v-.483a1.551,1.551,0,0,0,1.138-.343,1.923,1.923,0,0,0,.334-1.313V311.118a2.951,2.951,0,0,0-.31-1.531,1.27,1.27,0,0,0-1.162-.495v-.482c.491.044.967.068,1.426.068.63,0,1.227-.025,1.795-.081a12.371,12.371,0,0,0,1.564-.24" transform="translate(-422.565 -285.907)" fill="#0f4431"/>
    <path id="Path_22" data-name="Path 22" d="M601.358,310.547v3.772h2.714v.459h-2.714v9.293a1.48,1.48,0,0,0,.251.978.961.961,0,0,0,.76.288,1.376,1.376,0,0,0,.828-.31,2.549,2.549,0,0,0,.736-1.068l.391.207a4.06,4.06,0,0,1-1.114,1.7,2.948,2.948,0,0,1-2.036.666,4.146,4.146,0,0,1-1.334-.2,2.411,2.411,0,0,1-1.634-1.839,9.607,9.607,0,0,1-.161-1.944v-7.775h-1.931v-.459h1.931v-3.038a8.659,8.659,0,0,0,1.782-.172,5.659,5.659,0,0,0,1.531-.563" transform="translate(-466.018 -287.473)" fill="#0f4431"/>
    <path id="Path_23" data-name="Path 23" d="M632.928,322.659a4.2,4.2,0,0,1,3.174,1.2,5.526,5.526,0,0,1,1.151,3.912h-7.568l-.046-.437h4.715a11.083,11.083,0,0,0-.138-2.082,4.4,4.4,0,0,0-.506-1.529,1.039,1.039,0,0,0-.92-.575,1.613,1.613,0,0,0-1.369,1.011,8.207,8.207,0,0,0-.679,3.359l.07.138c-.016.186-.027.375-.035.575s-.011.407-.011.62a6.283,6.283,0,0,0,.448,2.577,3.254,3.254,0,0,0,1.138,1.439,2.558,2.558,0,0,0,1.4.45,3.9,3.9,0,0,0,1.507-.345,3.567,3.567,0,0,0,1.529-1.5l.415.138a5.993,5.993,0,0,1-.874,1.7,4.816,4.816,0,0,1-1.518,1.356,4.359,4.359,0,0,1-2.209.528,5.568,5.568,0,0,1-2.76-.666,4.582,4.582,0,0,1-1.874-2.024,7.685,7.685,0,0,1-.679-3.449,7.806,7.806,0,0,1,.725-3.566,4.866,4.866,0,0,1,2-2.13,5.956,5.956,0,0,1,2.909-.7" transform="translate(-488.318 -296.136)" fill="#0f4431"/>
    <path id="Path_24" data-name="Path 24" d="M674.387,322.659a2.1,2.1,0,0,1,1.2.312,1.876,1.876,0,0,1,.679.793,2.417,2.417,0,0,1,.218,1.013,1.975,1.975,0,0,1-.494,1.391,1.675,1.675,0,0,1-1.3.541,1.81,1.81,0,0,1-1.254-.4,1.368,1.368,0,0,1-.448-1.07,1.875,1.875,0,0,1,.288-1.07,2.715,2.715,0,0,1,.725-.725,1.051,1.051,0,0,0-.644.024,1.906,1.906,0,0,0-1.07.563,3.506,3.506,0,0,0-.747,1.116,3.2,3.2,0,0,0-.278,1.267v6.095A1.737,1.737,0,0,0,671.8,334a2.747,2.747,0,0,0,1.621.393v.482c-.353-.014-.866-.035-1.542-.057s-1.38-.035-2.116-.035q-.92,0-1.863.035c-.63.023-1.1.043-1.426.057v-.482a1.555,1.555,0,0,0,1.138-.345,1.923,1.923,0,0,0,.334-1.311V325.49a2.952,2.952,0,0,0-.31-1.531,1.264,1.264,0,0,0-1.162-.494v-.483q.734.069,1.426.07.966,0,1.806-.081a12.4,12.4,0,0,0,1.551-.243v2.14a4.207,4.207,0,0,1,.738-1.127,3.44,3.44,0,0,1,1.057-.793,3.055,3.055,0,0,1,1.335-.288" transform="translate(-516.343 -296.136)" fill="#0f4431"/>
    <path id="Path_25" data-name="Path 25" d="M434.515,248.586a5.792,5.792,0,0,1,1.76.3,4.727,4.727,0,0,1,1.268.587,3.446,3.446,0,0,1,.7.637,1.39,1.39,0,0,1,.276.9,1.465,1.465,0,0,1-.286.882,1.043,1.043,0,0,1-.908.394,1.238,1.238,0,0,1-.873-.308,1.072,1.072,0,0,1-.342-.841,1.274,1.274,0,0,1,.3-.874,1.261,1.261,0,0,1,.7-.426,1.7,1.7,0,0,0-.971-.618,6.415,6.415,0,0,0-1.313-.2" transform="translate(-350.435 -243.155)" fill="#0f4431"/>
    <path id="Path_26" data-name="Path 26" d="M241.987,249.015a2.025,2.025,0,0,0-1.345.45,1.615,1.615,0,0,0-.542,1.323,1.786,1.786,0,0,0,.415,1.184,4.635,4.635,0,0,0,1.081.92q.668.427,1.448.932a15.349,15.349,0,0,1,2.234,1.726,3.03,3.03,0,0,1,.919,2.3,2.812,2.812,0,0,1-.552,1.771,3.457,3.457,0,0,1-1.437,1.081,5.043,5.043,0,0,1-1.946.367,5.533,5.533,0,0,1-.954-.079,4.793,4.793,0,0,1-.863-.242,4.232,4.232,0,0,1-.471-.277c-.161-.106-.318-.223-.472-.345a.272.272,0,0,0-.413.013,1.5,1.5,0,0,0-.277.769h-.529c.032-.491.054-1.089.07-1.793s.022-1.64.022-2.807h.529a13.2,13.2,0,0,0,.461,2.254,3.11,3.11,0,0,0,.943,1.509,2.723,2.723,0,0,0,1.794.539,2.347,2.347,0,0,0,1.367-.483,1.947,1.947,0,0,0,.679-1.7,2.1,2.1,0,0,0-.736-1.656,15.1,15.1,0,0,0-1.863-1.357c-.552-.355-1.07-.706-1.553-1.059a4.807,4.807,0,0,1-1.173-1.2,3.189,3.189,0,0,1,.024-3.3,2.753,2.753,0,0,1,1.253-.966,4.522,4.522,0,0,1,1.68-.31,3.731,3.731,0,0,1,1.564.3" transform="translate(-210.08 -243.15)" fill="#0f4431"/>
    <path id="Path_27" data-name="Path 27" d="M250.176,248.586a5.792,5.792,0,0,1,1.76.3,4.725,4.725,0,0,1,1.269.587,3.438,3.438,0,0,1,.7.637,1.39,1.39,0,0,1,.277.9,1.464,1.464,0,0,1-.286.882,1.042,1.042,0,0,1-.908.394,1.239,1.239,0,0,1-.873-.308,1.072,1.072,0,0,1-.342-.841,1.273,1.273,0,0,1,.3-.874,1.261,1.261,0,0,1,.7-.426,1.705,1.705,0,0,0-.971-.618,6.437,6.437,0,0,0-1.313-.2" transform="translate(-218.586 -243.155)" fill="#0f4431"/>
    <path id="Path_28" data-name="Path 28" d="M390.325,249.015a2.025,2.025,0,0,0-1.345.45,1.62,1.62,0,0,0-.542,1.323,1.785,1.785,0,0,0,.415,1.184,4.634,4.634,0,0,0,1.081.92q.668.427,1.448.932a15.347,15.347,0,0,1,2.233,1.726,3.028,3.028,0,0,1,.919,2.3,2.813,2.813,0,0,1-.552,1.771,3.458,3.458,0,0,1-1.437,1.081,5.034,5.034,0,0,1-1.944.367,5.543,5.543,0,0,1-.956-.079,4.792,4.792,0,0,1-.863-.242,4.224,4.224,0,0,1-.47-.277c-.161-.106-.318-.223-.472-.345a.272.272,0,0,0-.414.013,1.516,1.516,0,0,0-.276.769h-.529q.047-.737.07-1.793c.015-.707.022-1.64.022-2.807h.529a13.146,13.146,0,0,0,.461,2.254,3.11,3.11,0,0,0,.943,1.509,2.723,2.723,0,0,0,1.795.539,2.348,2.348,0,0,0,1.367-.483,1.947,1.947,0,0,0,.679-1.7,2.1,2.1,0,0,0-.736-1.656,15.109,15.109,0,0,0-1.863-1.357c-.552-.355-1.07-.706-1.552-1.059a4.752,4.752,0,0,1-1.173-1.2,3.184,3.184,0,0,1,.022-3.3,2.752,2.752,0,0,1,1.253-.966,4.521,4.521,0,0,1,1.68-.31,3.732,3.732,0,0,1,1.564.3" transform="translate(-316.178 -243.15)" fill="#0f4431"/>
    <path id="Path_29" data-name="Path 29" d="M398.513,248.586a5.79,5.79,0,0,1,1.76.3,4.725,4.725,0,0,1,1.269.587,3.4,3.4,0,0,1,.7.637,1.392,1.392,0,0,1,.278.9,1.465,1.465,0,0,1-.288.882,1.042,1.042,0,0,1-.908.394,1.238,1.238,0,0,1-.873-.308,1.072,1.072,0,0,1-.342-.841,1.275,1.275,0,0,1,.3-.874,1.261,1.261,0,0,1,.7-.426,1.7,1.7,0,0,0-.971-.618,6.417,6.417,0,0,0-1.313-.2" transform="translate(-324.684 -243.155)" fill="#0f4431"/>
    <path id="Path_30" data-name="Path 30" d="M567.574,322.727a2.386,2.386,0,0,0-1.313.539,1.332,1.332,0,0,0-.459,1.092,1.887,1.887,0,0,0,.413,1.208,5.354,5.354,0,0,0,1.07.989q.656.47,1.369,1a13.478,13.478,0,0,1,1.944,1.714,3.186,3.186,0,0,1,.793,2.242,2.855,2.855,0,0,1-.6,1.806,3.851,3.851,0,0,1-1.576,1.184,5.544,5.544,0,0,1-2.175.413,4.894,4.894,0,0,1-1.23-.138,4.127,4.127,0,0,1-.931-.345c-.2-.089-.388-.178-.564-.262s-.34-.157-.494-.22a.35.35,0,0,0-.4.162,1.651,1.651,0,0,0-.264.644h-.483c.03-.493.052-1.089.068-1.795s.024-1.64.024-2.807h.482a8.806,8.806,0,0,0,.507,2.2,3.631,3.631,0,0,0,1,1.494,2.377,2.377,0,0,0,1.6.542,1.8,1.8,0,0,0,1.1-.38,1.465,1.465,0,0,0,.505-1.253,2.3,2.3,0,0,0-.656-1.68,16.028,16.028,0,0,0-1.667-1.448q-.735-.6-1.391-1.186a5.4,5.4,0,0,1-1.07-1.289,3.083,3.083,0,0,1-.413-1.6,2.775,2.775,0,0,1,.552-1.75,3.354,3.354,0,0,1,1.461-1.07,5.285,5.285,0,0,1,1.944-.356h.514a6.789,6.789,0,0,1,1.513.159,4.321,4.321,0,0,1,1.2.443,2.825,2.825,0,0,1,.719.639,1.36,1.36,0,0,1,.256.849,1.481,1.481,0,0,1-.327.966,1.177,1.177,0,0,1-.965.4,1.469,1.469,0,0,1-.984-.354,1.193,1.193,0,0,1-.415-.957,1.336,1.336,0,0,1,.273-.824,1.638,1.638,0,0,1,.771-.54,1.32,1.32,0,0,0-.585-.327,2.714,2.714,0,0,0-.708-.1" transform="translate(-442.099 -295.935)" fill="#0f4431"/>
  </g>
  <rect id="Rectangle_2642" data-name="Rectangle 2642" width="5.216" height="1.551" transform="translate(81.337 30.108)" fill="#0f4431"/>
</svg>
